<svg xmlns="http://www.w3.org/2000/svg" width="24" height="24" class="wd-icon-related-actions wd-icon" focusable="false" role="presentation" viewBox="0 0 24 24">
    <g fill-rule="evenodd" class="wd-icon-container">
        <g>
            <path d="M3 12c0-1.105.888-2 2-2 1.105 0 2 .888 2 2 0 1.105-.888 2-2 2-1.105 0-2-.888-2-2zm7 0c0-1.105.888-2 2-2 1.105 0 2 .888 2 2 0 1.105-.888 2-2 2-1.105 0-2-.888-2-2zm7 0c0-1.105.888-2 2-2 1.105 0 2 .888 2 2 0 1.105-.888 2-2 2-1.105 0-2-.888-2-2z" class="wd-icon-fill"/>
        </g>
    </g>
</svg>
